<svg xmlns="http://www.w3.org/2000/svg" width="20" height="20" viewBox="0 0 20 20">
  <g id="Grupo_16264" data-name="Grupo 16264" transform="translate(0.001 -0.001)">
    <path id="Trazado_9439" data-name="Trazado 9439" d="M10,0A10,10,0,1,0,20,10,10.008,10.008,0,0,0,10,0" transform="translate(19.999 20) rotate(180)" fill="#a3a3a3"/>
    <path id="Trazado_9440" data-name="Trazado 9440" d="M7.646,10.258a1.022,1.022,0,0,1,.613,1.129,1.068,1.068,0,0,1-1.032.839,1.294,1.294,0,0,1-.484-.1C6.678,12.1-.064,8.935,0,6.1-.064,3.29,6.678.129,6.742.1A1.294,1.294,0,0,1,7.226,0,1.068,1.068,0,0,1,8.258.839a.969.969,0,0,1-.613,1.129c-2,.9-5.613,3.064-5.613,4.129.032,1.065,3.677,3.258,5.613,4.161" transform="translate(14.676 16.129) rotate(180)" fill="#fff"/>
  </g>
</svg>
