<svg xmlns="http://www.w3.org/2000/svg" width="241.377" height="23.68" viewBox="0 0 241.377 23.68">
  <g id="Grupo_6" data-name="Grupo 6" transform="translate(0)">
    <path id="Trazado_4" data-name="Trazado 4" d="M214.333,61.1c3.787.815,13.087.575,13.326-5.561,0-2.445-3.164-4.746-6.184-5.417a20.055,20.055,0,0,0-9.827,0c-2.3.863-3.02-1.39-.911-2.157,3.979-1.438,19.462-1.774,20.229,7.526-.623,9.2-14.189,8.533-17.209,7.909a2.219,2.219,0,0,1-2.109-2.349v-7.67a1.342,1.342,0,1,1,2.684,0Z" transform="translate(-168.379 -40.777)" fill="#fff" fill-rule="evenodd"/>
    <path id="Trazado_5" data-name="Trazado 5" d="M266.722,50.315c-3.02,0-8.1,9.2-9.587,12.511a1.587,1.587,0,1,1-2.828-1.438c1.582-3.547,7.67-14.285,12.367-14.189,4.746-.1,10.786,10.642,12.415,14.189a1.587,1.587,0,1,1-2.828,1.438C274.775,59.519,269.742,50.315,266.722,50.315Z" transform="translate(-191.622 -40.776)" fill="#fff" fill-rule="evenodd"/>
    <path id="Trazado_6" data-name="Trazado 6" d="M310.774,60.756c3.02,0,8.1-9.2,9.587-12.511a1.576,1.576,0,1,1,2.828,1.39c-1.63,3.547-7.67,14.237-12.367,14.189-4.746.1-10.786-10.594-12.415-14.189a1.577,1.577,0,1,1,2.828-1.39C302.721,51.552,307.754,60.756,310.774,60.756Z" transform="translate(-214.582 -40.815)" fill="#fff" fill-rule="evenodd"/>
    <path id="Trazado_7" data-name="Trazado 7" d="M357.62,48.875V62.3c0,2.013-3.02,1.917-3.02-.1V48.827A1.511,1.511,0,1,1,357.62,48.875Z" transform="translate(-243.932 -40.822)" fill="#fff" fill-rule="evenodd"/>
    <path id="Trazado_8" data-name="Trazado 8" d="M377.574,60.756c3.02,0,8.1-9.2,9.587-12.511a1.576,1.576,0,1,1,2.828,1.39c-1.582,3.547-7.67,14.237-12.415,14.189-4.746.1-10.786-10.594-12.367-14.189a1.577,1.577,0,1,1,2.828-1.39C369.521,51.552,374.506,60.756,377.574,60.756Z" transform="translate(-249.361 -40.815)" fill="#fff" fill-rule="evenodd"/>
    <path id="Trazado_9" data-name="Trazado 9" d="M435.639,56.937c.911,1.87,3.451,3.4,5.848,3.931a19.863,19.863,0,0,0,9.779,0c2.253-.719,3.02,1.438.911,2.157-4.122,1.39-19.366,1.917-20.277-7.43.479-8.868,12.655-8.628,17.3-8.053,2.253.288,1.822,2.684-.575,2.205-3.116-.431-11.553-.911-13.182,4.7h8.676c1.342,0,1.342,2.493,0,2.493Z" transform="translate(-284.177 -40.831)" fill="#fff" fill-rule="evenodd"/>
    <path id="Trazado_10" data-name="Trazado 10" d="M535.185,61.1c3.787.815,13.135.575,13.326-5.561,0-2.445-3.164-4.746-6.184-5.417a19.863,19.863,0,0,0-9.779,0c-2.3.863-3.02-1.39-.911-2.157,3.979-1.438,19.462-1.774,20.229,7.526-.623,9.2-14.189,8.533-17.209,7.909a2.219,2.219,0,0,1-2.109-2.349v-7.67a1.342,1.342,0,1,1,2.684,0Z" transform="translate(-335.452 -40.777)" fill="#fff" fill-rule="evenodd"/>
    <path id="Trazado_11" data-name="Trazado 11" d="M587.437,50.315c-3.02,0-8.1,9.2-9.587,12.511-.911,1.965-3.691.575-2.828-1.438,1.63-3.547,7.67-14.285,12.415-14.189,4.746-.1,10.786,10.642,12.367,14.189a1.587,1.587,0,1,1-2.828,1.438C595.491,59.519,590.457,50.315,587.437,50.315Z" transform="translate(-358.607 -40.776)" fill="#fff" fill-rule="evenodd"/>
    <path id="Trazado_12" data-name="Trazado 12" d="M424.32,48.875V62.3c0,2.013-3.02,1.917-3.02-.1V48.827A1.511,1.511,0,1,1,424.32,48.875Z" transform="translate(-278.658 -40.822)" fill="#fff" fill-rule="evenodd"/>
    <path id="Trazado_13" data-name="Trazado 13" d="M492.3,58.325c-1.87-3.451-3.931-7.957-5.369-8.053-3.5,0-1.917,6.9-1.965,12.272,0,1.917-3.02,1.87-3.02-.192,0-6.855-1.486-15.052,5.081-15.052,1.917,0,3.739,2.876,5.369,5.561,1.87,3.451,4.122,8.005,5.513,8.1,3.5,0,1.822-6.759,1.917-12.128,0-1.917,3.02-1.917,3.02.192,0,6.855,1.534,14.908-4.985,14.908C495.893,63.886,493.927,61.01,492.3,58.325Z" transform="translate(-310.157 -40.829)" fill="#fff" fill-rule="evenodd"/>
    <path id="Trazado_14" data-name="Trazado 14" d="M130.263,55.6c.048.479,0,2.589-1.917,5.465-2.013,3.164,1.15,8.437,7.526,7.095a12.463,12.463,0,0,0,3.883.575,11.188,11.188,0,0,0,3.883-.575c6.376,1.342,9.539-3.931,7.526-7.095-1.917-2.876-1.965-4.937-1.917-5.465Z" transform="translate(-125.821 -45.15)" fill="#c12a21" fill-rule="evenodd"/>
    <path id="Trazado_15" data-name="Trazado 15" d="M145.969,69.884c-6.232-.144-7.382-3.02-5.656-3.643a24.052,24.052,0,0,0,2.3-.959c-.671-3.26.431-7.382,3.356-7.382s3.979,4.266,3.308,7.43c0,0,1.342.479,2.3.863C153.207,66.912,152.2,69.74,145.969,69.884Z" transform="translate(-131.987 -46.347)" fill="#0074c5" fill-rule="evenodd"/>
    <path id="Trazado_16" data-name="Trazado 16" d="M147.226,68.464c-1.678-4.65-.192-8.964,2.349-8.964,2.445,0,4.075,4.218,2.349,8.964a11.884,11.884,0,0,0-2.445-.192A14.166,14.166,0,0,0,147.226,68.464Z" transform="translate(-135.593 -47.18)" fill="#f4cf00" fill-rule="evenodd"/>
    <path id="Trazado_17" data-name="Trazado 17" d="M148.057,80.189c2.493,0,4.506-.527,4.506-1.294S150.6,77.6,148.057,77.6c-2.493,0-4.458.527-4.458,1.294C143.551,79.661,145.516,80.189,148.057,80.189Z" transform="translate(-134.076 -56.604)" fill="#d98918" fill-rule="evenodd"/>
    <path id="Trazado_18" data-name="Trazado 18" d="M134.663,60.4h3.02a.859.859,0,0,1,.863.863v2.013a.859.859,0,0,1-.863.863h-3.02a.859.859,0,0,1-.863-.863V61.263A.859.859,0,0,1,134.663,60.4Z" transform="translate(-128.975 -47.649)" fill="#0074c5" fill-rule="evenodd"/>
    <path id="Trazado_19" data-name="Trazado 19" d="M135.571,61.4h2.4a.655.655,0,0,1,.671.671v1.486a.617.617,0,0,1-.671.623h-2.4a.678.678,0,0,1-.671-.623V62.071A.655.655,0,0,1,135.571,61.4Z" transform="translate(-129.547 -48.17)" fill="#302e2b" fill-rule="evenodd"/>
    <path id="Trazado_20" data-name="Trazado 20" d="M140.934,63.174c-1.055-.1-1.438-1.342-1.534-1.774h.863a.655.655,0,0,1,.671.671Z" transform="translate(-131.89 -48.17)" fill="#f4cf00" fill-rule="evenodd"/>
    <path id="Trazado_21" data-name="Trazado 21" d="M136.534,61.4c-.048.383-.383,1.726-1.534,1.774v-1.1a.655.655,0,0,1,.671-.671h.863Z" transform="translate(-129.599 -48.17)" fill="#f4cf00" fill-rule="evenodd"/>
    <path id="Trazado_22" data-name="Trazado 22" d="M162.963,60.4h3.02a.859.859,0,0,1,.863.863v2.013a.859.859,0,0,1-.863.863h-3.02a.859.859,0,0,1-.863-.863V61.263A.859.859,0,0,1,162.963,60.4Z" transform="translate(-143.709 -47.649)" fill="#0074c5" fill-rule="evenodd"/>
    <path id="Trazado_23" data-name="Trazado 23" d="M163.871,61.4h2.4a.655.655,0,0,1,.671.671v1.486a.617.617,0,0,1-.671.623h-2.4a.678.678,0,0,1-.671-.623V62.071A.686.686,0,0,1,163.871,61.4Z" transform="translate(-144.281 -48.17)" fill="#302e2b" fill-rule="evenodd"/>
    <path id="Trazado_24" data-name="Trazado 24" d="M169.234,63.174c-1.1-.1-1.438-1.342-1.534-1.774h.911a.655.655,0,0,1,.671.671v1.1Z" transform="translate(-146.624 -48.17)" fill="#f4cf00" fill-rule="evenodd"/>
    <path id="Trazado_25" data-name="Trazado 25" d="M164.834,61.4c-.048.383-.431,1.726-1.534,1.774v-1.1a.655.655,0,0,1,.671-.671h.863Z" transform="translate(-144.333 -48.17)" fill="#f4cf00" fill-rule="evenodd"/>
    <path id="Trazado_26" data-name="Trazado 26" d="M165.665,37.528c-.336-1.1-.383-1.63.623-1.63h2.205c1.342-.048.767,1.007.671,2.013a15.615,15.615,0,0,0-.192,1.726S165.665,37.576,165.665,37.528Z" transform="translate(-145.453 -34.892)" fill="#c12a21" fill-rule="evenodd"/>
    <path id="Trazado_27" data-name="Trazado 27" d="M138.057,44.31c-3.26,0-7.718.288-10.594.527-2.205.144-3.883-1.534-2.445-3.116,3.116-3.4,10.738-7.622,13.039-7.622,2.445,0,9.923,4.266,13.039,7.622,1.486,1.582,0,3.116-2.205,3.116C146.446,44.838,141.317,44.31,138.057,44.31Z" transform="translate(-124.124 -33.956)" fill="#d98918" fill-rule="evenodd"/>
    <path id="Trazado_28" data-name="Trazado 28" d="M156.5,70.731a.431.431,0,1,1,.431.431A.43.43,0,0,1,156.5,70.731Z" transform="translate(-140.793 -52.803)" fill="#272425" fill-rule="evenodd"/>
    <path id="Trazado_29" data-name="Trazado 29" d="M137.715,54.748a14.645,14.645,0,0,0-2.349.192c-1.534-4.506-.144-8.724,2.349-8.724s3.883,4.218,2.349,8.724a13.909,13.909,0,0,0-2.349-.192Zm2.253.383a13.9,13.9,0,0,0-4.6,0c-1.294.192-2.109.575-2.109,1.007,0,.623,1.965,1.15,4.41,1.15s4.41-.527,4.41-1.15c.048-.431-.815-.815-2.109-1.007Zm.192-.144c1.246.24,2.061.671,2.061,1.15a.663.663,0,0,1-.24.431c2.109-.959,2.253-2.445,1.15-2.828-1.007-.336-2.205-.815-2.205-.815.623-3.164-.336-7.382-3.26-7.382-2.876,0-3.883,4.218-3.26,7.382,0,0-1.2.479-2.205.815-1.15.383-.959,1.917,1.15,2.828a.663.663,0,0,1-.24-.431c0-.479.815-.911,2.061-1.15-1.63-4.65-.048-8.964,2.493-8.964s4.123,4.266,2.493,8.964Zm3.931-18.6h0c-.24-1.007-.24-1.39.575-1.39h1.87c1.246-.048.719.959.623,1.87-.048.575-.1,1.055-.144,1.39-.959-.671-1.965-1.294-2.924-1.87Zm-2.157,20.373h0c5.992,1.007,8.916-3.979,7-7.047a10.01,10.01,0,0,1-1.87-4.985c-3.931-.192-6.615-.383-9.3-.431-2.684.048-5.417.24-9.3.431a10.224,10.224,0,0,1-1.917,4.985c-1.917,3.02,1.007,8.053,7,7.047-2.541-.959-2.828-2.589-1.486-3.116,1.007-.383,2.3-.863,2.3-.863-.671-3.26.479-7.526,3.4-7.478,2.924,0,4.075,4.266,3.4,7.478,0,0,1.342.479,2.3.863,1.294.527,1.007,2.157-1.534,3.116Zm-4.218-12.847c3.356.048,6.567.288,10.306.527,2.349.144,3.643-1.39,2.157-3.02-2.157-2.349-9.587-7.238-12.511-7.238s-10.354,4.889-12.511,7.238c-1.486,1.63-.144,3.164,2.157,3.02,3.835-.24,7.047-.479,10.4-.527Zm5.944-7.766a16.793,16.793,0,0,0-5.944-2.349c-2.157,0-7.766,2.924-12.415,6.807-3.116,2.636-1.1,4.362,1.87,4.218l.863-.048a7.538,7.538,0,0,1-1.63,4.314c-3.451,4.123,1.1,9.3,7.574,7.862a12.945,12.945,0,0,0,3.691.527,12.716,12.716,0,0,0,3.691-.527c6.471,1.438,11.025-3.739,7.574-7.862a7.2,7.2,0,0,1-1.63-4.314c.288,0,.575.048.863.048,2.972.144,4.985-1.582,1.869-4.218-1.007-.815-2.78-2.157-2.78-2.157a12.961,12.961,0,0,1,.336-2.109c.24-.863.383-1.726-.911-1.726h-2.157c-1.007,0-1.15.671-1.007,1.246.1.1.1.192.144.288Z" transform="translate(-123.734 -33.8)" fill="#302e2b" fill-rule="evenodd"/>
    <line id="Línea_1" data-name="Línea 1" x2="3.02" transform="translate(5.688 12.751)" fill="none" stroke="#302e2b" stroke-width="0.415"/>
    <path id="Trazado_30" data-name="Trazado 30" d="M141.9,60.4a.859.859,0,0,1,.863.863" transform="translate(-133.192 -47.649)" fill="none" stroke="#302e2b" stroke-width="0.415" fill-rule="evenodd"/>
    <line id="Línea_2" data-name="Línea 2" y2="2.013" transform="translate(9.571 13.614)" fill="none" stroke="#302e2b" stroke-width="0.415"/>
    <path id="Trazado_31" data-name="Trazado 31" d="M142.763,66.4a.859.859,0,0,1-.863.863" transform="translate(-133.192 -50.773)" fill="none" stroke="#302e2b" stroke-width="0.415" fill-rule="evenodd"/>
    <line id="Línea_3" data-name="Línea 3" x1="3.02" transform="translate(5.688 16.49)" fill="none" stroke="#302e2b" stroke-width="0.415"/>
    <path id="Trazado_32" data-name="Trazado 32" d="M134.663,67.263a.859.859,0,0,1-.863-.863" transform="translate(-128.975 -50.773)" fill="none" stroke="#302e2b" stroke-width="0.415" fill-rule="evenodd"/>
    <line id="Línea_4" data-name="Línea 4" y1="2.013" transform="translate(4.825 13.614)" fill="none" stroke="#302e2b" stroke-width="0.415"/>
    <path id="Trazado_33" data-name="Trazado 33" d="M133.8,61.263a.859.859,0,0,1,.863-.863" transform="translate(-128.975 -47.649)" fill="none" stroke="#302e2b" stroke-width="0.415" fill-rule="evenodd"/>
    <line id="Línea_5" data-name="Línea 5" x2="3.02" transform="translate(19.254 12.751)" fill="none" stroke="#302e2b" stroke-width="0.415"/>
    <path id="Trazado_34" data-name="Trazado 34" d="M170.2,60.4a.859.859,0,0,1,.863.863" transform="translate(-147.926 -47.649)" fill="none" stroke="#302e2b" stroke-width="0.415" fill-rule="evenodd"/>
    <line id="Línea_6" data-name="Línea 6" y2="2.013" transform="translate(23.137 13.614)" fill="none" stroke="#302e2b" stroke-width="0.415"/>
    <path id="Trazado_35" data-name="Trazado 35" d="M171.063,66.4a.859.859,0,0,1-.863.863" transform="translate(-147.926 -50.773)" fill="none" stroke="#302e2b" stroke-width="0.415" fill-rule="evenodd"/>
    <line id="Línea_7" data-name="Línea 7" x1="3.02" transform="translate(19.254 16.49)" fill="none" stroke="#302e2b" stroke-width="0.415"/>
    <path id="Trazado_36" data-name="Trazado 36" d="M162.963,67.263a.859.859,0,0,1-.863-.863" transform="translate(-143.709 -50.773)" fill="none" stroke="#302e2b" stroke-width="0.415" fill-rule="evenodd"/>
    <line id="Línea_8" data-name="Línea 8" y1="2.013" transform="translate(18.391 13.614)" fill="none" stroke="#302e2b" stroke-width="0.415"/>
    <path id="Trazado_37" data-name="Trazado 37" d="M162.1,61.263a.859.859,0,0,1,.863-.863" transform="translate(-143.709 -47.649)" fill="none" stroke="#302e2b" stroke-width="0.415" fill-rule="evenodd"/>
  </g>
</svg>
